<svg width="41" height="54" viewBox="0 0 41 54" fill="none" xmlns="http://www.w3.org/2000/svg">
<path fill-rule="evenodd" clip-rule="evenodd" d="M12.3008 0.00999832C13.0508 -1.67824e-06 13.3908 0.359998 13.3408 1.1C10.1708 2.31 7.00081 3.53 3.84081 4.76C3.03081 5.08 2.51081 5.66 2.28081 6.5C2.24081 21.1 2.21081 35.7 2.19081 50.3C1.93081 50.4 1.66081 50.5 1.40081 50.6C0.560807 50.85 0.10081 50.54 0.0208101 49.69C-0.0191899 35.04 0.000811022 20.39 0.060811 5.74C0.260811 5 0.710807 4.47 1.40081 4.14C4.87081 2.8 8.33081 1.46 11.7908 0.130001C11.9608 0.0800011 12.1308 0.03 12.2908 0L12.3008 0.00999832Z" fill="black"/>
<path fill-rule="evenodd" clip-rule="evenodd" d="M15.2108 1.08C15.8808 0.95 16.2908 1.21 16.4508 1.87C16.4708 6.06 16.4708 10.26 16.4508 14.45C13.3408 15.83 10.2208 17.22 7.11083 18.61C7.07083 24.8 7.06083 30.99 7.09083 37.18C10.2108 38.73 13.3308 40.29 16.4508 41.84C16.4808 43.44 16.4708 45.04 16.4108 46.64C16.1908 47.47 15.6908 48.03 14.8908 48.34C11.4708 49.65 8.06083 50.97 4.64083 52.28C4.27083 52.43 3.89083 52.47 3.49083 52.42C3.35083 52.37 3.24083 52.3 3.15083 52.19C3.05083 52.01 2.98083 51.82 2.93083 51.62C2.91083 36.76 2.91083 21.89 2.93083 7.03C3.10083 6.23 3.54083 5.65 4.27083 5.29C7.91083 3.87 11.5608 2.46 15.2008 1.08H15.2108Z" fill="black"/>
<path fill-rule="evenodd" clip-rule="evenodd" d="M30.6208 14.24C30.5808 12.45 30.5708 10.66 30.5808 8.85998C31.6908 8.36998 32.8008 7.86998 33.9108 7.36998C34.0308 7.34998 34.1508 7.34998 34.2708 7.36998C34.3108 7.39998 34.3408 7.43998 34.3608 7.49998C34.3808 9.08998 34.3808 10.68 34.3608 12.27C34.2708 12.54 34.1008 12.72 33.8408 12.83C32.7608 13.3 31.6908 13.77 30.6108 14.25L30.6208 14.24Z" fill="black"/>
<path fill-rule="evenodd" clip-rule="evenodd" d="M30.5908 8.85999C30.5808 10.66 30.5908 12.45 30.6308 14.24C30.6308 14.26 30.6208 14.27 30.5908 14.28C30.5408 12.47 30.5408 10.67 30.5908 8.86998V8.85999Z" fill="black"/>
<path fill-rule="evenodd" clip-rule="evenodd" d="M29.8008 9.22002C29.8708 10.99 29.9008 12.77 29.8708 14.56C24.5608 16.89 19.2608 19.22 13.9508 21.55C12.0508 20.59 10.1508 19.63 8.25082 18.66C15.4208 15.49 22.6008 12.35 29.7908 9.21002L29.8008 9.22002Z" fill="black"/>
<path fill-rule="evenodd" clip-rule="evenodd" d="M29.8008 9.21999C29.8008 9.21999 29.8608 9.17999 29.9108 9.17999C29.9208 10.98 29.9108 12.77 29.8708 14.56C29.8908 12.77 29.8708 10.99 29.8008 9.21999Z" fill="black"/>
<path fill-rule="evenodd" clip-rule="evenodd" d="M33.9908 13.52C34.1508 13.49 34.2708 13.54 34.3708 13.66C34.4108 15.29 34.3908 16.91 34.3308 18.53C34.2408 18.7 34.1208 18.84 33.9508 18.94C32.8208 19.43 31.6908 19.93 30.5608 20.43C30.5308 18.63 30.5408 16.82 30.5808 15.02C31.7308 14.52 32.8608 14.02 33.9908 13.51V13.52Z" fill="black"/>
<path fill-rule="evenodd" clip-rule="evenodd" d="M29.8308 15.35C29.9008 17.14 29.9308 18.95 29.9008 20.76C29.7408 20.8 29.5908 20.86 29.4308 20.92C26.4508 22.24 23.4608 23.55 20.4708 24.85C18.5708 23.92 16.6808 22.95 14.8108 21.96C19.8208 19.76 24.8208 17.55 29.8308 15.35Z" fill="black"/>
<path fill-rule="evenodd" clip-rule="evenodd" d="M7.61082 19.08C7.75082 19.08 7.88082 19.08 8.00082 19.13C18.8308 24.59 29.6508 30.05 40.4808 35.51C40.7108 35.64 40.8508 35.84 40.8908 36.1C40.9308 37.68 40.9108 39.26 40.8508 40.83C40.7508 40.93 40.6208 40.96 40.4708 40.92C29.6008 35.44 18.7408 29.96 7.89082 24.47C7.72082 24.35 7.59082 24.19 7.51082 23.99C7.49082 22.39 7.49082 20.79 7.51082 19.19C7.55082 19.16 7.58082 19.12 7.60082 19.08H7.61082Z" fill="black"/>
<path fill-rule="evenodd" clip-rule="evenodd" d="M30.6608 26.68C30.6108 25.8 30.5908 24.91 30.5908 24.01C30.5908 23.11 30.6008 22.2 30.6308 21.3C31.7208 20.82 32.8008 20.33 33.8908 19.85C34.0808 19.76 34.2408 19.79 34.3708 19.94C34.3908 21.53 34.3908 23.12 34.3708 24.71C34.2608 25.01 34.0508 25.22 33.7408 25.34C32.7108 25.78 31.6808 26.23 30.6608 26.68Z" fill="black"/>
<path fill-rule="evenodd" clip-rule="evenodd" d="M30.5508 21.34C30.5308 23.14 30.5508 24.94 30.6208 26.72C30.5908 26.75 30.5608 26.76 30.5108 26.76C30.5008 24.95 30.5108 23.15 30.5508 21.35V21.34Z" fill="black"/>
<path fill-rule="evenodd" clip-rule="evenodd" d="M30.6208 21.3C30.6008 22.2 30.5808 23.1 30.5808 24.01C30.5808 24.92 30.6008 25.8 30.6508 26.68C30.6508 26.7 30.6408 26.72 30.6108 26.72C30.5408 24.94 30.5108 23.15 30.5408 21.34C30.5508 21.31 30.5808 21.3 30.6108 21.3H30.6208Z" fill="black"/>
<path fill-rule="evenodd" clip-rule="evenodd" d="M29.8308 21.66C29.8708 23.45 29.8808 25.24 29.8708 27.04C28.9608 27.43 28.0508 27.83 27.1508 28.22C25.2408 27.28 23.3408 26.32 21.4508 25.33C24.2408 24.1 27.0408 22.87 29.8408 21.66H29.8308Z" fill="black"/>
<path fill-rule="evenodd" clip-rule="evenodd" d="M29.8308 21.66C29.8308 21.66 29.8408 21.63 29.8708 21.62C29.9208 23.43 29.9208 25.23 29.8708 27.03C29.8808 25.23 29.8708 23.44 29.8308 21.65V21.66Z" fill="black"/>
<path fill-rule="evenodd" clip-rule="evenodd" d="M7.6108 25.24C7.7308 25.24 7.8508 25.25 7.9708 25.29C18.8208 30.76 29.6708 36.23 40.5208 41.71C40.7008 41.84 40.8308 42.02 40.9008 42.23C40.9208 43.8 40.9208 45.36 40.9008 46.93C40.8108 47.1 40.6808 47.15 40.4908 47.09C29.6408 41.62 18.7908 36.15 7.9408 30.67C7.7408 30.55 7.60081 30.38 7.53081 30.15C7.51081 28.55 7.51081 26.95 7.53081 25.35C7.57081 25.32 7.6008 25.28 7.6208 25.24H7.6108Z" fill="black"/>
<path fill-rule="evenodd" clip-rule="evenodd" d="M7.61079 31.52C7.73079 31.52 7.8508 31.53 7.9708 31.57C18.8008 37.03 29.6208 42.49 40.4508 47.95C40.6808 48.09 40.8308 48.28 40.9008 48.54C40.9408 50.13 40.9208 51.72 40.8608 53.31C40.7408 53.43 40.6008 53.45 40.4508 53.36C29.6308 47.9 18.8008 42.44 7.9708 36.98C7.7708 36.85 7.6208 36.68 7.5208 36.46C7.5008 34.86 7.5008 33.26 7.5208 31.66C7.5408 31.61 7.57079 31.56 7.61079 31.52Z" fill="black"/>
</svg>
