<svg width="284" height="277" xmlns="http://www.w3.org/2000/svg" xmlns:xlink="http://www.w3.org/1999/xlink" xml:space="preserve" overflow="hidden"><defs><clipPath id="clip0"><rect x="549" y="128" width="284" height="277"/></clipPath></defs><g clip-path="url(#clip0)" transform="translate(-549 -128)"><path d="M103.9 256.6C103.6 256.3 98.1 255.9 91.5 255.7 84.1 255.4 79.4 254.8 79.2 254.1 79 253.4 75.9 253 71.4 253 66.1 253 64 252.6 64 251.7 64 251 61.8 249.9 59.1 249.3 54.4 248.2 50 245.2 50 243 50 242.5 45.9 240 41 237.4 33.6 233.6 32 232.4 32 230.5 32 229 31.3 227.9 30.1 227.5 26.9 226.5 23 223 23 221.1 23 220.2 20.3 216.8 17 213.5 11.5 208.1 11 207.2 11 203.3 11 200.5 9.9 196.9 8 193 5.2 187.5 4 181 5.8 181 6.2 181 6.1 176 5.6 169.8 5 161.7 5.1 158.5 5.9 158.2 6.6 158 7 155.2 7 151 7 147.2 7.4 143.8 8 143.5 8.5 143.2 9 141 9 138.8 9 136.5 9.5 132 10.2 128.8 11.1 124.4 11.8 123 13.1 123 14.1 123 15.1 122 15.5 120.8 15.8 119.5 17.3 115.7 18.7 112.3 21.1 106.4 21.4 106 24.5 106 28.2 106 30.7 103.6 33.1 97.8 33.8 96 35.2 93.8 36.1 92.9 38.7 90.3 43.1 80.5 43.7 76.1 44.2 72.7 44.6 72 46.5 72 50.7 72 51.3 62.8 47.5 56.1 46.1 53.8 45 50.5 45 48.9 45 46.2 45.3 46 48.9 46 53.8 46 58.6 49.2 62.7 55.4 67.3 62.2 68.2 66.7 67.8 80.2 67.7 86.7 67.8 92 68.3 92 70.4 92 68.6 99 65.1 105 60.8 112.3 59.1 117 60.9 117 61.5 117 62 118.5 62 120.3 61.9 123 61.2 123.9 57.5 126.3 52 129.8 48.2 136 46.4 144.3 44.7 152.2 44.7 153 46.4 153 47.6 153 47.8 154.8 47.7 162.8 47.6 168.9 47.9 173.2 48.6 174.1 49.2 174.9 50 176.7 50.4 178.3 50.7 179.8 51.6 181 52.3 181 53.1 181 54.7 184.2 56 188.6 58.5 196.3 64.1 205 66.7 205 67.4 205 68.3 205.6 68.6 206.4 69.5 208.7 84.8 221 86.8 221 87.8 221 89.5 221.9 90.5 223 91.5 224.1 92.9 225 93.5 225 94.2 225 96.7 225.9 99.1 227 101.5 228.1 105.3 229 107.5 229 109.7 229 113.8 229.7 116.5 230.5 120.6 231.8 122.8 231.9 128.4 231 135.6 229.9 143.9 226.8 147.8 223.9 150.4 221.9 150.1 221.8 142.8 220.5 140.7 220.2 139 219.5 139 219 139 217.7 124.6 210.6 118.8 209 116.2 208.3 114 207.2 113.8 206.4 113.6 205.7 110.4 202.9 106.6 200.3 100.3 195.9 99.6 195.1 98.5 190.6 97.8 188 96.8 185.5 96.3 185.1 94.3 183.8 91 178.1 91 176 91 174.9 90.3 172.6 89.5 170.9 88.6 169.3 87.9 166 87.9 163.7 87.9 161.4 87.7 148.9 87.5 136 87.2 121.6 87.4 110.2 88 106.5 88.9 101.6 88.8 99.7 87.6 96.1 86.7 93.7 86 90.3 86 88.6 86 86.9 85.1 84.4 84 83 82.9 81.6 82 79.7 82 78.6 82 77.6 80.9 75.5 79.5 73.8 78.1 72.2 77 70.2 77 69.5 77 68.8 74.1 65.4 70.5 61.9 65 56.7 64 55.1 64 52.3 64 49.1 64.2 49 67.8 49 76.1 49 91.3 59.4 96 68.2 97.7 71.4 99.5 74 100 74 100.6 74 101.3 75.8 101.6 78 102 80.2 102.8 82 103.5 82 104.9 82 106 90.6 106 102.6 106 108.1 106.4 111 107.2 111.2 108.1 111.5 108.1 113.5 107.1 119.9 106.3 124.6 106 131 106.3 134.8 106.7 138.8 106.4 143.9 105.6 147.5 104.6 152.2 104.6 153.6 105.6 153.8 106.2 154 107.1 156.2 107.4 158.8 107.8 161.4 108.6 165.6 109.2 168.3 110.2 172.2 110.8 173 112.7 173 114.5 173 115 173.6 115 175.6 115 181.8 122.9 192.4 126.8 191.3 128.9 190.8 129 190.2 129 181.9 129 175.3 129.3 173 130.3 173 131 173 132.3 170.1 133.3 166.3 136.1 155.7 138.5 151 141.2 151 142.9 151 145.4 148.8 149.9 143.5 153.4 139.4 156.9 136 157.5 136 158.2 136 160.9 133.3 163.6 130.1 167.3 125.6 169.2 124.1 171.2 124.1 174.6 124 178.7 119.1 179.5 114.2 180.9 106.1 181.2 105 182.6 105 184.5 105 184.5 99 182.6 94.5 180.4 89.4 177.7 88.3 166.8 87.7 159.4 87.4 156.4 86.8 154.4 85.4 151.6 83.4 151.3 83.2 146.5 80.7 142 78.4 138.1 72.3 138 67.4 138 63.9 138.4 63.1 140.8 62 146.8 59.2 155.5 56 157.2 56 158.2 56 159 55.3 159 54.3 159 53.3 160.5 51.3 162.4 49.8 165 47.7 165.8 46.2 166.2 42.7 166.5 40.1 168 36.4 169.7 33.9 172.4 29.8 172.9 29.5 177.5 29.3 180.4 29.3 185.3 28 189 26.5 192.6 24.9 198.2 23.5 201.7 23.2 208 22.7 208 22.7 208 25.4L208 28 216.5 28C221.1 28 227.2 28.5 230 29.1 234.3 30 235 30.5 235 32.6 235 34.4 235.9 35.3 238.5 36.4 241.5 37.7 242 38.4 242 41.2 242 44.8 243.7 46.2 256.8 53 262.5 56 263 56.5 263 59.6 263 61.9 262.5 63 261.6 63 260.5 63 261.1 65.2 263.8 71.2 267.3 79.1 267.5 80.1 267.8 91.5 267.9 98.1 268.3 106.9 268.6 111 269.1 116.6 268.8 119.7 267.6 123.3 266.7 125.9 266 131.2 266 135.1 266 142.8 263.3 150.1 256.8 159.7 254.3 163.3 252.9 166.7 252.2 171.2 251.7 174.7 249.8 183.2 248 190.3 245.4 200.3 244.4 203 243.1 203 241.9 203 239.8 206.2 236.4 213.5 232.1 222.7 231.2 223.9 228.9 224 227.1 224 224.4 226.1 219.1 231.5 213.5 237.3 211.3 239 209.1 239 206.2 239 188.2 247 184.3 250 182.5 251.4 179.3 251.7 164.6 251.8 143.7 252.1 128.9 253.4 122.9 255.5 118.9 256.8 105 257.6 103.9 256.6ZM258.4 112C258.4 95.4 258.3 94.1 255.7 86.5 248.3 65.4 234 49.7 216.1 43 209.4 40.4 199 39.5 193.5 40.8L189.5 41.8 194.6 41.9C215.2 42.3 232.8 54.8 243.3 76.4 250.3 90.9 253 104.7 253.1 127.3L253.2 144.5 255.8 137C258.2 130.1 258.4 128.2 258.4 112ZM208 65C208.8 63.4 208.7 62.4 207.5 60.8 206 58.6 206 58.7 206 62.8 206 67.5 206.4 67.9 208 65Z" transform="matrix(1.00002 0 0 1 549 128)"/><path d="M733.3 174.1C731.6 173 728.3 169.6 726.1 166.6 723.8 163.6 719.6 158.5 716.6 155.3 713.6 152.1 710.1 148.3 708.9 146.9 706.9 144.7 705.9 144.3 702.9 144.7 699.4 145.2 699.2 145.4 698.6 149.7 698.3 152.2 698.3 158 698.7 162.6L699.3 171 694.2 171C690.1 171 688.9 170.6 688 169 686.4 166.1 687.2 143 689.3 128.5 690.3 121.9 691.5 113.4 692.1 109.5 692.7 105.7 693.4 98.6 693.7 93.8L694.3 85.2 698.4 83.6C700.9 82.6 705.6 82 710.1 82 720.3 82 725.5 84.6 729 91.5 731.2 95.9 731.5 97.7 731.4 106.5 731.3 118.5 730 122.9 725.4 127 721.2 130.6 721.3 130.9 727.9 143 730.5 147.7 733.2 153 733.9 154.8 734.7 156.6 737 159.9 739.2 162.3 742.5 165.8 743.1 166.1 742.4 164 742 162.6 741.6 156.6 741.5 150.5 741.5 144.5 740.9 137.3 740.3 134.5 738.3 126.2 736.7 98.4 738 96.1 739.4 93.5 742.7 92.6 749.5 93.2 756.8 93.8 758 95 758 101.7L758 107.2 762.8 103.6C765.4 101.6 771.3 97.3 776 94 783.5 88.7 785 88 789.3 88L794.1 88 793.8 92.1C793.6 95.4 793 96.4 790.5 97.8 786.8 99.9 777.5 107.4 769.8 114.5L764.1 119.8 767.8 123.4C769.8 125.4 771.7 127 772.1 127 772.5 127 775.5 130.6 778.9 134.9 782.2 139.3 787 144.6 789.5 146.8 792.9 149.8 794 151.5 794 153.7 794 156.4 794.2 156.5 797.9 156.2 800 156 802.1 156.3 802.4 156.9 804.4 160.1 811.3 156.9 813.9 151.7L815.9 147.7 813.5 142.9C810.8 137.8 808.1 135.4 798 129.2 789.6 124.2 787 120.4 787 113.3 787 102.9 792.7 95.6 802.1 94.1 805.1 93.6 808.8 92.7 810.3 92.1 811.9 91.5 815.3 91 818 91 822.5 91 822.9 91.2 825 94.8 826.8 97.7 827.3 100.2 827.4 106L827.5 113.5 823.5 113.8C820.3 114.1 819.2 113.7 817.5 111.7 816.4 110.4 814.3 108.5 812.8 107.5 810.1 105.9 809.9 105.9 806.4 107.7 804.3 108.7 802.1 110.5 801.3 111.7 799.7 114.2 800.1 114.6 808.2 120 811.1 121.9 815.5 125.6 818.1 128.1 827.6 137.6 828.6 153.7 820.2 162.6 816.9 166 813.6 167 804.9 167 796.7 167 794 165.8 794 162 794 159.2 793.7 159 790.5 159 786 159 778.7 153.8 770.8 145 764.6 138.2 756.2 132.2 755.6 134.3 754.3 138.6 753 151.4 753 160.4L753 171 749.5 171C747.3 171 745.7 170.4 745.1 169.3 744.3 167.9 744.1 168.4 744 171.8 744 176 744 176 740.3 176 738.2 176 735.1 175.1 733.3 174.1ZM709.8 115.4C711.8 114 712 113 712 105.4 712 97.9 711.8 96.9 710.3 97.2 708.6 97.5 708.1 98.8 706.2 108.5 705.6 111.3 704.8 114.3 704.5 115.3 703.6 117.5 706.7 117.6 709.8 115.4Z" transform="matrix(1.00002 0 0 1 549 128)"/><path d="M351.1 168.4C348.6 165.3 348.3 163.1 347.5 147.5 346.8 133.7 345.2 110.9 344.4 103.2 344 99.3 344.2 97.3 345.4 95.5 346.9 93.3 347.7 93 353.6 93 361.8 93 365 95.5 365 102 365 104.2 365.3 106 365.6 106 366 106 368.1 104.5 370.4 102.7 372.7 100.8 378.6 96.5 383.6 93.1 391.1 88 393.4 86.9 396.1 87.2 399.3 87.5 399.5 87.8 399.8 91.6 400.1 95.4 399.8 95.8 395.8 98.5 391.6 101.2 384 107.4 379.5 111.5 378.3 112.6 375.7 114.9 373.7 116.7L370.1 119.8 375.7 124.6C378.8 127.3 383.3 132.1 385.8 135.5 389.8 141 394.1 145.6 398 148.7 399.3 149.7 399.5 148.8 399.2 142.1 399 137.9 399.3 129.7 400 124 400.7 118.2 401.1 112.4 401 111 399.6 97 400.8 95 410.3 95 415.4 95 416.5 95.4 419.1 97.9 422.7 101.5 422.9 106.2 419.9 112.2 416 119.8 412 134 412 140.1 412 146.3 413.3 148.5 417.6 149.6 427.2 152 434.6 135.4 435.9 108L436.5 94.5 440.8 94.2 445 93.9 445 100.4 445 107 448.1 107C451 107 451.1 107.1 450.8 111.3 450.5 115.1 450.2 115.5 447.8 115.8 445.4 116.1 445 116.6 445 119.2 445 127.7 441.5 143.6 438 150.4 433.4 159.6 430.2 161.4 418 161.4 409.1 161.5 405.9 160.4 402.8 156.6L401 154.5 401 156.8C401 160.2 393.9 159.9 389.4 156.3 384.5 152.3 373.3 141.4 372.9 140.2 372.7 139.7 370.3 137.9 367.5 136.2 362.5 133.1 362.5 133.1 361.7 135.3 361.3 136.5 360.6 145 360.3 154.2L359.7 171 356.4 171C354.1 171 352.6 170.3 351.1 168.4Z" transform="matrix(1.00002 0 0 1 549 128)"/><path d="M513.4 168.5C510.9 164.7 510 159.1 510.5 152 510.8 148.4 510.6 143 510 140 509.4 137 508.5 129.6 508 123.5 507.5 117.5 506.8 110 506.4 107 505.7 102 505.6 101.8 504.9 104.5 504.5 106.2 503.6 111.3 502.9 116 502.1 121.8 500.7 126.5 498.4 131 495.1 137.7 492.3 146.7 491 155.6 489.8 163.3 488.6 165 484.1 165 481.5 165 479.7 164.3 478.3 162.8 475.7 159.8 473 152.8 473 148.9 473 147.2 472.5 145 472 143.9 471.4 142.9 470.3 139.2 469.6 135.8 468.7 131.9 468.2 130.6 468.1 132.4 468 133.9 467.3 138.2 466.5 141.9 465.7 145.5 464.8 151.1 464.4 154.4 464 159 463.4 160.3 461.9 160.7 460.5 161.1 460 162.1 460 164.6 460 167.9 459.9 168 456 168 452.3 168 452 167.8 452 165.3 452 163.8 451 161.6 449.8 160.3 448.1 158.5 447.5 156.4 447.2 151.5 446.8 145.9 447.1 144.8 449.3 141.8 452 138.1 453.2 132.4 453.4 121 453.5 116 454.1 112.3 455.3 110.1 456.2 108.2 457 105.9 457 105 457 102.9 459.8 96.6 462.4 92.8 463.7 90.7 465 90 467.4 90 472.8 90 472.8 90.2 475.3 107.5 476.2 113.2 478.1 122.5 478.9 125 479.4 126.4 480.1 128.4 480.5 129.5 481.1 131.3 481.3 131.1 482.8 128 483.7 126.1 484.9 123.8 485.5 123 486 122.2 487.2 119.5 488.1 117 489.5 112.9 489.5 112 488.1 107.3 486.6 102.1 486.5 102 482.8 102 479 102 479 102 479 97.9L479 93.8 483.2 94.2 487.5 94.5 488.8 89.5C490 85.3 490.7 84.2 493.9 82.8 498.2 80.7 505 80.4 506.8 82.2 507.5 82.9 508 85.7 508 88.5L508 93.5 516.1 93.5C525.6 93.5 527 94.6 527 102.2L527 106.9 535.4 100.7C552.6 88.1 553.2 87.7 557.6 87.2L562 86.7 562 91.2C562 95.4 561.7 95.9 557.8 98.5 552.7 101.9 533 118.9 533 120 533 120.4 535.1 122.4 537.6 124.4 540.2 126.3 544.9 131.3 548 135.4 551.1 139.5 555.8 144.7 558.3 147.1 562.3 150.7 563 151.8 563 155.2 563 158.9 562.9 159 559.4 159 554.9 159 548.7 154.6 539.9 145.2 536.5 141.5 531.6 137.3 529.1 135.8L524.5 133.1 523.3 140.3C522.7 144.3 522.1 152.8 522.1 159.3L522 171 518.5 171C515.9 171 514.6 170.4 513.4 168.5Z" transform="matrix(1.00002 0 0 1 549 128)"/><path d="M391 166 391 162 395.5 162 400 162 400 166 400 170 395.5 170 391 170 391 166Z" transform="matrix(1.00002 0 0 1 549 128)"/><path d="M554 166 554 162 558 162 562 162 562 166 562 170 558 170 554 170 554 166Z" transform="matrix(1.00002 0 0 1 549 128)"/><path d="M785 166 785 162 789 162 793 162 793 166 793 170 789 170 785 170 785 166Z" transform="matrix(1.00002 0 0 1 549 128)"/><path d="M309.3 166.3C307.3 165.9 307 165.2 307 160.9L307 156 311 156C313.2 156 315 156.5 315 157 315 158.3 319.3 158.3 322.4 156.9 323.7 156.3 325.6 154 326.5 151.9 328.2 148.2 328.2 147.9 326.3 143.3 324.6 139.1 323.2 137.7 314.4 131.8 300.7 122.5 300 121.6 300 112.6 300 106.1 300.3 105 303.1 101.2 306.7 96.3 310.5 94 315 94 316.7 94 319.7 93.3 321.7 92.5 323.6 91.7 327.6 91 330.4 91 335.2 91 335.6 91.2 337.6 94.8 340.4 99.6 341.9 111.8 339.9 113.1 337.5 114.6 332.2 114.1 330.8 112.3 330.1 111.3 328 109.4 326.2 108.2 323.3 106.1 322.5 106 320 107 316.3 108.5 312.8 112.3 313.5 114.1 314.1 115.6 319.6 119.8 326.4 124.1 341.5 133.5 342 161.9 327.1 166 323.6 167 313.6 167.1 309.3 166.3Z" transform="matrix(1.00002 0 0 1 549 128)"/><path d="M565.7 166.3C565.3 166 565 161.8 565 157.1 565 146.9 562.7 128.7 560.4 121 558 113.1 557.6 108.2 559 106.5 560.9 104.2 570.6 104.5 571.8 106.8 572.3 107.7 573 114.4 573.4 121.5 573.8 128.7 574.4 136 574.8 137.9L575.5 141.3 577.2 137.4C578 135.3 580.1 129.5 581.7 124.5L584.7 115.5 589.4 115.2C593.4 114.9 594.3 115.3 596.4 117.7 597.7 119.2 599.1 122.4 599.4 124.7 599.7 127.1 601 130.9 602.2 133.3 604.3 137.4 604.4 137.4 605.1 135 605.5 133.6 605.8 130.7 605.9 128.4 606 125.7 606.7 123.7 608 122.5 609.6 121.1 610 119.4 610 114.8 610 110.3 610.4 108.6 611.9 107.3 613.7 105.8 619 96 620.4 91.8 620.8 90.5 622 90 624.5 90 626.4 90 628 90.4 628 90.9 628 91.4 628.9 92 630 92.3 631.7 92.7 632 93.7 632 98.2 632 102.9 629.7 112.1 627 118.5 626.5 119.6 625.7 123.4 625.1 127 623 140.3 621.9 145.4 620 149.6 618.9 151.9 618 154.3 618 154.8 618 155.2 616.4 157.5 614.4 159.8 611 163.8 610.6 164 605.1 164 600.4 164 599 163.6 597.4 161.8 593.7 157.5 590.2 151.5 588.9 147.2 588.2 144.9 587.5 143.1 587.4 143.3 587.2 143.5 586 146.5 584.7 150.1 583.4 153.6 580.7 158.9 578.6 161.8 575.1 166.7 574.5 167 570.6 167 568.2 167 566 166.7 565.7 166.3Z" transform="matrix(1.00002 0 0 1 549 128)"/><path d="M650.9 161.1C642.3 159.4 633.7 150.9 632.1 142.6 631.6 139.8 631 131.9 630.8 125 630.5 112.7 630.5 112.5 632.7 112.2 634 112 635.8 110.4 637 108.2 638.4 105.7 640.9 103.6 644.3 101.9 647.6 100.2 649.6 98.5 649.8 97.2 650.4 93.6 662.2 92.7 666.1 95.9 668.1 97.5 668.5 98.7 668.5 103.8 668.5 109.6 668.6 109.9 671.3 110.4 674.6 111.1 680 116.4 680 118.9 680 119.8 680.9 121.9 682 123.5 685.2 128.4 684.8 140.3 681.1 148.3 679.6 151.7 677 155.7 675.4 157.1 670.7 161.3 660.6 163 650.9 161.1ZM661.9 145.1C662.7 144.6 664.1 141.1 665 137.4 666.7 130.8 666.7 128 665 128 663.5 128 661 121.7 661 117.8 661 115.7 660.6 114 660.1 114 658.7 114 655.5 118.4 652.9 123.6 650.3 129 650.7 134.7 654.2 140.6 657.3 146 658.9 147 661.9 145.1Z" transform="matrix(1.00002 0 0 1 549 128)"/><path d="M0 138.5 0 0 450 0 900 0 900 138.5 900 277 450 277 0 277 0 138.5ZM123.7 251.5C127.1 250.7 139.3 249.5 151.2 249 162.9 248.4 174 247.7 175.9 247.4 178.6 246.9 179.1 247 178.4 248.1 177.9 249 178.5 248.9 180 247.7 181.4 246.8 186.6 244.1 191.5 241.7 196.5 239.3 202.5 236.1 204.8 234.6 209.4 231.7 211.3 231.8 208.9 234.7 205.4 239.1 211.9 233.1 217.5 226.8 220.8 223.2 224.1 220.1 224.8 220.1 225.4 220 226 219.4 226 218.8 226.1 217.9 226.5 218 227.3 219.1 228.3 220.4 229.4 218.7 234 208.8 237 202.4 239.8 197.1 240.2 197 240.5 197 241 197.8 241.2 198.8 241.6 200.8 247.7 177.6 249.2 168.2 249.9 163.7 251.3 160.3 253.8 156.7 260.3 147 263 139.9 263 131.8 263.1 127.8 263.7 122.7 264.5 120.5 266.4 115.4 266.4 114 264.4 106.1 263.2 101.4 263.1 99.5 263.9 99.2 264.6 99 265 96.2 265 91.8 265 84.1 261.4 73.5 255.9 64.9 254.3 62.4 253 60.1 253 59.7 253 59.4 254.7 59.4 256.8 59.6 261.3 60.3 260.3 59.3 251.5 54.8 248.2 53.1 242.7 49.8 239.3 47.4 235.9 45 232.7 43 232.1 43 231.6 43 230.8 42.5 230.4 41.9 229.9 41 231 40.9 234.5 41.4 240.8 42.4 239.7 40.9 232 38 228.7 36.8 226 35.6 226 35.4 226 35.2 227.5 34.7 229.3 34.2 232.5 33.3 232.4 33.3 226.5 32 222.7 31.2 216.6 30.9 209.8 31.3 203.8 31.5 199 31.4 199 31 199 30.5 200.5 29.2 202.3 28L205.5 25.9 201.6 26.5C195.5 27.5 187.5 30.8 181.9 34.6 179.1 36.5 176.6 38 176.3 38 176 38 176 36.6 176.4 35 176.8 33 176.6 32.1 175.9 32.5 174.4 33.5 170.2 40.5 169.4 43.4 168.8 45.8 169 46 171.8 45.4 174 44.9 175.1 45.3 176.1 46.8 177.3 48.4 179 48.8 187.5 49.2 203.5 50 212 54.9 212 63.3 212 68.8 204.8 76 199.4 76 198.1 76 198.3 75.5 200.4 73.5 202.6 71.5 203 70.2 203 65.9 203 61.3 202.6 60.4 199.6 57.6 195.7 53.9 190.2 52 183.3 52L178.2 52 177.2 56.3C174.9 65.3 166.2 68.4 160.9 62.1L158.4 59 152.4 61.4C143.3 65 141 66.2 141 67.4 141.1 69.6 146.6 76.2 149.5 77.7 154.3 80.2 154.6 80.4 157.4 82.4 159.4 83.8 162.4 84.4 169.8 84.7 180.7 85.3 183.4 86.4 185.6 91.5 187.2 95.3 187.6 112 186.1 112 185.6 112 185 111 184.8 109.8 184.5 108.1 184.2 108.6 183.6 111.5 183.2 113.7 182.5 117.1 182 119 180.9 122.8 172.8 132.6 167.7 136.2L164.5 138.5 167.1 135C171.7 128.8 171.3 128.4 166.1 134 163.3 137 161 139.8 161 140.3 161 140.7 160.5 141 159.9 141 159.4 141 159.2 140.4 159.5 139.8 160.8 137.5 149.5 150.2 147 154 141.6 162.1 141.9 161.9 142.4 157.5 142.9 153.8 142.8 153.6 141.4 155.5 139.6 158 135 172.2 135 175.6 135 178.1 133.5 178.9 132.7 176.8 132.4 176.1 132.1 180.4 132.1 186.3 132 193.2 131.6 196.9 131 196.5 129.7 195.7 129.7 196 131.5 200.9 132.8 204.7 132.8 205 131.2 204.1 128.2 202.5 115.4 188.3 113.7 184.7 112.7 182.8 112 180 112 178.6 112 177.2 111.6 176 111 176 110.5 176 110 176.7 110 177.6 110 178.4 109.6 178.9 109.1 178.5 107.9 177.8 105 168.1 105 164.8 104.9 161.8 102.4 158.3 101.7 160.2 100.6 162.9 101.1 151.2 102.3 145.3 103.1 141.9 103.3 139.3 102.9 139.6 101.9 140.2 100.7 136.3 101.5 135 101.9 134.4 102.3 131.8 102.6 129.2 102.8 126.6 103.2 122.5 103.5 120 103.9 116.9 103.8 115.9 103.1 117 101.4 119.6 101.1 117.6 102.2 109.9 103.2 102.9 102.4 82.6 101.3 85.8 100.4 88.3 99.2 86.8 98.7 82.3 98.4 79.7 97.7 77.4 97.1 77.2 96.5 77 94.7 74.3 93 71.1 90.9 67.3 88.2 64.1 84.7 61.5 79.2 57.3 68.2 51.5 67.4 52.2 67.2 52.5 70.1 55.7 74 59.4 77.9 63 80.8 66.5 80.5 67 80.2 67.5 81.4 69.5 83.1 71.4 84.8 73.4 85.9 75.4 85.5 76 85.2 76.5 86.6 79.6 88.8 82.7 90.9 85.9 92.9 89.3 93.3 90.3 93.9 91.9 93.8 91.9 91.5 90.4L89 88.8 90.5 93.1C92.4 98.4 93.5 108.4 92.1 107.6 91.5 107.2 91.5 108.1 92 110.1 92.7 112.5 92.6 113.1 91.6 112.7 90.6 112.3 90.4 116.5 90.6 133.8 90.7 146.1 91.3 157 91.9 159 93.4 163.7 93.3 166.3 91.8 165.4 91.1 165 91.8 166.7 93.3 169.2 96.2 174.2 96.6 175.5 95 174.5 94.5 174.2 94 174.2 94 174.5 94 175.2 97.5 180.3 99.7 183 100.4 183.8 101 185 101.1 185.5 101.1 186.1 102.5 188 104.2 189.8 107.5 193.1 107.4 193.8 103.7 191.8 98.7 189.2 104.4 194.1 111.6 198.7 115.7 201.3 118.5 203.7 117.9 204 117.4 204.4 119 205.3 121.7 206 127.5 207.6 141.7 214.5 142.2 216 142.4 216.6 146.1 217.7 150.5 218.4L158.5 219.7 153.8 224.1C145.3 232.1 127.5 236.8 115.4 234.1 112.2 233.3 107.7 232.6 105.5 232.5 103.2 232.4 99.3 231.3 96.7 230.2 94.2 229.1 91.9 228.4 91.6 228.8 91.3 229.1 89.9 228.3 88.5 227 87.1 225.7 85.2 224.6 84.2 224.5 82.1 224.3 66.4 211.6 65.6 209.3 65.3 208.5 64.6 208.1 64.1 208.4 62.2 209.6 55.5 199.3 53 191.6 51.3 186.2 50.4 184.4 50 185.6 49.5 187.1 49 186.6 48.1 183.5 47.4 181.3 46.3 178.4 45.7 177.1 45 175.8 44.5 170.5 44.5 165.4 44.5 158.6 44.2 156.7 43.5 158.3 41.9 161.9 41.6 151.8 43 143.3 44.6 133.9 48.5 127.2 54.6 123.1L59.4 120 55.9 120.6 52.5 121.3 54.8 118.8C56.1 117.4 56.7 116.1 56.2 115.9 55.2 115.5 58.6 107.8 63.3 99.8 65.9 95.5 66 95.2 64 95.7 61.6 96.3 61.6 96 63.5 89.6 65.2 83.9 65.5 72.2 64 66.8 62.5 61.7 57.2 54 53.1 51.3 48.3 48 47.8 48.4 50.5 53.3 53.5 58.4 53.9 68.1 51.4 75.3 49.8 80 47.2 83.3 48.2 79.3 48.5 78.1 48.4 76.7 48 76 47.6 75.4 47 76.6 46.7 79 46.1 83.5 41.7 93.3 39.1 95.9 38.2 96.8 36.7 99.3 35.7 101.4 33.9 105.3 25.4 117 24.4 117 24.1 117 24.1 115.1 24.4 112.8L25 108.5 22.1 114.5C20.6 117.8 18.7 122.9 18 125.7 16.8 130.9 15.1 132 14.9 127.7 14.8 123.8 12.1 136.4 12 141.2 12 143.8 11.6 146.2 11 146.5 10.5 146.8 10 150.5 10 154.6 10 160 9.7 161.9 8.8 161.4 8 160.9 7.9 161.6 8.5 164.1 8.9 166 9.4 170.4 9.5 174 9.7 177.6 10.3 181.7 10.9 183.3 12 186.2 11.2 186.8 9.1 184.8 7.4 183.1 14.2 197.2 17.5 202.1 20.4 206.6 20.9 209 18.3 206.8 12.9 202.2 14.6 204.8 21.2 211.5 25.5 215.8 29 219.5 29 219.7 29 220 28.2 219.9 27.3 219.6 23 217.9 29.3 222.8 35 225.5 41.6 228.7 42.8 230.3 37.8 229.4 34.5 228.8 34.5 228.8 36.7 230.4 37.9 231.3 42.8 233.9 47.6 236.2 54.3 239.4 55.8 240.5 54.4 241.1 52.8 241.7 52.9 241.9 55.3 242.5 57 243 57.7 243.6 57.1 244 55.9 244.7 60.5 246.3 67.5 247.6 71.2 248.3 71.3 248.4 69 249.1 67.4 249.5 69.3 249.8 74.2 249.9 78.7 250 82 250.4 82.2 251.1 82.4 251.8 87 252.3 94.3 252.4 100.8 252.6 106.3 252.9 106.6 253.2 107.4 254.1 117.1 253.1 123.7 251.5ZM741 171.7C741 171.1 739.2 168.5 736.9 166.1 734.6 163.7 731.9 159.8 730.9 157.4 729.8 155 727.1 149.9 725 146 720.3 137.8 716.6 128.4 717.5 127 717.8 126.5 718.7 126 719.5 126 721.7 126 726.9 119.2 727.6 115.3 730.2 101.7 727 91.3 719 87.3 713.8 84.6 707.3 84.3 701.4 86.6L697.3 88.2 696.7 96.8C696.4 101.6 695.7 108.7 695.1 112.5 694.5 116.4 693.3 124.9 692.3 131.5 690.1 146.4 689.5 163.2 691 165.9 692.6 168.9 696 168.7 696 165.6 696 164.2 695.6 162.9 695.1 162.6 694.2 162 694.3 160.4 696.1 144.5 697.4 133.1 697.8 132 699.8 132 702.3 132.1 705.2 134.7 710.8 142 713.5 145.6 717.8 150.6 720.3 153.2 722.8 155.8 726.7 160.4 729 163.5 734.1 170.4 741 175.1 741 171.7ZM358.5 133.3C359 129.5 359.6 128 360.7 128 362.5 128 375.3 135.8 375.9 137.3 376.9 139.8 395 156 396.9 156 399 156 398 154.3 393 149.9 390.2 147.5 385.9 142.8 383.5 139.4 381.1 136.1 375.9 130.5 372.1 127.1 368.2 123.6 365 120.5 365 120 365 119.1 368.5 115.6 375.3 109.7 385.7 100.6 389.8 97.3 393.4 95.1 397 92.9 397.8 91.6 396.2 90.6 395.2 90 380.9 99.7 369.5 108.7 365.1 112.1 361.1 115 360.6 115 360.2 115 360.1 113.5 360.4 111.8 362.4 102.4 362.3 101.2 359.6 98.6 356.1 95.1 350.7 95 348.4 98.5 347.1 100.6 347 101.8 347.9 105.7 348.4 108.4 349.2 116.5 349.5 123.8 349.7 131.2 350.2 137.6 350.6 138.1 350.9 138.6 351.1 143.6 351.1 149.1 351.1 159.4 351.9 163.1 354.8 166.4 356.4 168.1 356.5 167.4 357.1 153.4 357.5 145.2 358.1 136.1 358.5 133.3ZM520.4 136C520.8 134.1 521.3 131.5 521.6 130.3 521.8 129 522.5 128 523.1 128 525.9 128 537.1 136 542.8 142.1 549.7 149.5 558.7 156.6 559.8 155.6 560.2 155.2 558.2 152.8 555.5 150.2 552.7 147.7 548 142.3 544.9 138.3 541.9 134.3 537.6 129.7 535.4 128 531 124.5 528.1 121.1 528 119.3 528 117.9 548.6 99.6 554.8 95.5 559 92.7 560.7 89.4 557.2 90.8 554.6 91.8 538.2 103.4 530 110.1 522.5 116.1 522.7 116.2 523.5 107.9 524.3 99.2 523.3 97.3 517.8 96.3 515.1 95.9 513.3 96.2 511.4 97.5 509 99 508.8 99.6 509.5 103.3 509.9 105.6 510.4 110.1 510.6 113.3 511.6 127.7 511.9 130.9 512.9 136.5 513.5 139.8 514 145.7 514 149.5 513.8 160.7 513.9 161.3 516.3 165L518.5 168.5 519.1 154C519.5 146 520.1 137.9 520.4 136ZM751.9 134.6C752.5 131.3 753.3 128.3 753.7 127.9 755.1 126.5 768.1 135.7 773.8 142.1 778.6 147.4 788.9 156 790.5 156 792.2 156 790.4 153.2 786.5 149.8 784 147.6 779.2 142.3 775.9 137.9 772.5 133.6 769.4 130 769.1 130 768 130 759 120.8 759 119.7 759 117.8 781.3 98.3 787.5 94.8 791 92.8 791.9 91 789.3 91 787.3 91 776.9 97.9 766 106.5 762.4 109.3 758.3 112.5 756.8 113.4L754 115.2 754.7 107.3C755.4 98.3 754.7 97.2 748.2 96.3 743.3 95.6 739.4 98.7 740.4 102.3 741 104.4 741.8 112.8 742.4 125 742.6 128 743.2 133.2 743.9 136.5 744.5 139.8 745 146.3 744.9 151 744.8 159.7 745.2 161.7 747.9 166 749.4 168.3 749.5 167.7 750.1 154.5 750.5 146.8 751.3 137.8 751.9 134.6ZM397 166C397 165.5 396.3 165 395.5 165 394.7 165 394 165.5 394 166 394 166.6 394.7 167 395.5 167 396.3 167 397 166.6 397 166ZM324.1 163C328.5 161.8 332.1 157.8 333.9 152.2 335.1 148.6 335.1 147.1 334 142.7 332.3 136 328.7 130.3 324.8 128.2 321.7 126.5 315.4 121.7 311.3 117.9 308.4 115.3 308.4 112.1 311.1 108.6 317 101.1 327.9 101.4 333.8 109.2 334.5 110.1 335.7 110.7 336.5 110.4 338.4 109.6 337.5 103.7 334.7 98.3 332.3 93.5 330.6 93 324.7 95.5 322.7 96.3 319.7 97 318 97 310.8 97 303 105.1 303 112.6 303 118.2 305 120.5 317 128.5 326.2 134.6 327.3 135.7 329.6 140.7 332.5 147.4 332.5 147.9 329.9 154 328.5 157.3 326.9 159.2 325 160 321.1 161.6 312.8 161.8 312.3 160.3 311.6 158.3 310 158.8 310 160.9 310 163.8 317.4 164.8 324.1 163ZM575.6 158.8C577.7 155.9 580.3 150.8 581.5 147.5 585.2 137.6 586.8 134 587.9 134 588.4 134 589.8 137.3 591 141.3 593.1 148.2 596.1 153.9 600.4 158.8 603.5 162.3 607.3 161.7 611.4 156.8 613.4 154.5 615 152.2 615 151.8 615 151.3 615.9 148.9 617 146.6 618.9 142.4 620 137.3 622.1 124 622.7 120.4 623.5 116.6 624 115.5 626 110.8 629 100.4 629 98.2 629 96.7 628.3 95.6 627 95.3 625.9 95 625 94.3 625 93.8 625 93.3 624.5 93.2 624 93.5 623.4 93.9 623.2 94.5 623.5 95 623.8 95.5 622.7 98 621 100.6 619.4 103.2 618 105.9 618 106.5 618 107.1 616.8 108.7 615.4 109.9 613.1 111.9 612.9 112.8 613.2 117.5 613.4 121.8 613.1 123.3 611.4 125.2 610 126.7 609.1 129.4 608.7 133 608.3 137.9 605.3 145.9 604 146 603.1 146 597 131.5 596.2 127.5 595.4 122.6 591.7 117.7 589.4 118.2 588.3 118.4 586.8 121.4 584.8 127.5 581.4 137.6 575.2 151.6 573.3 153.2 572.3 154 572 153 572 148.4 572 145.1 571.3 136.5 570.6 129.2 569.8 121.8 569.4 115 569.7 114 570.4 111.2 568.2 108 565.6 108 562.9 108 560.5 110.4 561.5 112 564.3 116.5 568 140.7 568 154.1 568 166.1 569.6 167.1 575.6 158.8ZM811 163.4C815.3 162.5 820.2 157.2 821.8 151.7 824.7 142.1 818.8 132 805.2 123 797.7 118.1 797 117.3 797 113.7 797 109.6 799 106.7 803.4 104.6 809.9 101.5 816 103 820.7 108.9 823.5 112.3 825 110.9 824.4 105.4 823.8 100.1 820.5 94 818.2 94 817.4 94 814.4 94.7 811.6 95.5 808.8 96.3 804.9 97.2 802.9 97.5 800.2 97.9 798.1 99.3 795.2 102.4 790.3 107.7 789 112.7 791.3 117.5 793 121 793.2 121.2 805.5 129.3 811.8 133.4 814.1 135.6 816.2 139.5 819.5 145.5 819.7 149 817 154.6 814.2 160.4 806.1 163.4 800.8 160.6 799.3 159.8 797.9 159.4 797.6 159.8 794.6 162.7 803 165 811 163.4ZM486.1 159.9C486.7 158.7 487.5 155.4 488 152.6 489.2 144.3 492.7 132.8 495.6 127.6 498.2 123 501 111.5 501 105.6 501 104 501.9 100.7 503.1 98.4 504.4 95.6 505 92.7 504.8 89.9 504.4 84.2 502.5 83.1 497.2 85.6 493.5 87.3 493 88 491.5 93.8 489.9 99.7 489.9 100.5 491.4 105.2 492.3 108 493 111.2 493 112.4 493 114.8 490.1 123.6 488.5 126 486 129.8 484.9 132.6 484.4 136.3 483.9 140.7 482.4 144 481 144 480.5 144 479.6 142.3 479.1 140.3 477.1 132.8 475.8 127.4 474.4 121 473 114.5 472.8 113.3 470.9 100.8 469.7 93.3 468.1 91.8 465.3 95.8 462.8 99.7 460 105.9 460 108 460 108.9 459.2 111.2 458.3 113.1 457.1 115.3 456.6 118.4 456.7 122 457 130.8 455 141.1 452.2 144.8 450.3 147.5 449.9 148.9 450.4 151.8 451.2 157 454 159.5 457.6 158.3 460.2 157.4 460.6 156.8 461.3 151.4 461.7 148.2 462.8 142.5 463.6 138.9 464.3 135.2 465 128.5 465 124 465 118 465.3 115.9 466.2 116.2 467.7 116.7 471.6 126.5 472.5 132.2 472.9 134.6 473.8 138.1 474.6 140 475.3 141.9 476.1 145.3 476.4 147.5 476.9 152.4 478.7 156.7 481.4 159.8 483.8 162.5 484.6 162.6 486.1 159.9ZM428 156.1C433.3 153.7 438.1 143.3 440.3 129.8 442.4 117 442.6 96.6 440.8 97.2 439.9 97.5 439.3 101.7 438.9 111.1 437.8 133 432.5 149.3 425.6 152.2 419.1 154.8 410.5 152.7 409.3 148.1 408.9 146.7 408.6 142.4 408.7 138.5 408.8 131.2 412.6 117.6 417 109 419.2 104.7 419.2 104.7 417.2 102.1 411.5 94.5 401.1 98.4 404.2 107 405.2 109.9 405.1 111.8 403.3 123 402.9 124.9 402.6 131.5 402.6 137.5 402.5 147.3 402.8 148.9 404.8 152.1 408.9 158.7 418.8 160.5 428 156.1ZM664.8 157.9C670.9 156.4 674.6 152.9 678.1 145.3 681.5 137.9 681.9 131.5 679.1 126.2 678 124.2 676.6 121.2 675.8 119.6 674.5 116.7 669.7 113 667.2 113 666.5 113 665.4 114.1 664.8 115.5 663.6 118.3 664.8 121.9 668.2 125.3 670.4 127.5 670.4 131.5 668.1 140.5 666.4 146.7 665.9 147.6 663 148.8 656.4 151.5 651.6 147.4 648.1 135.9 646.6 131.2 648.2 123 651.8 117.2 654.7 112.5 655.3 112 660.8 109.9 664.7 108.5 666.3 106 665.4 102.5 664.5 98.7 660.9 96.7 656.5 97.6 654 98 653 98.7 653.4 99.6 654 101 650.5 103.7 644.8 106.2 643.3 106.9 641 109.4 639.8 111.7 638.1 114.8 637 115.8 635.8 115.4 634 114.9 632.2 116.9 633.7 117.9 634.2 118.2 634.6 122.5 634.5 127.3 634.4 132.1 634.7 138 635.2 140.4 636.8 148 645.8 156.5 653.9 158.1 659.2 159.1 659.7 159.1 664.8 157.9ZM447.8 111.2C448 110.5 447.5 110 446.6 110 445.7 110 445 110.7 445 111.6 445 113.3 447.2 113 447.8 111.2ZM172.3 59.6C175.5 54.7 175.4 49 172.1 49 169.6 49 162 55.1 162 57.1 162 59.5 166.6 62.9 169 62.3 170 62 171.5 60.8 172.3 59.6Z" fill="#FFFFFF" transform="matrix(1.00002 0 0 1 549 128)"/><path d="M243.5 165.9C248.4 155 250 146.1 250 128.9 250 119.4 249.4 110.2 248.6 105.7 242.4 73.4 226.5 52.6 203.7 46.8 196.4 45 194.7 44.9 188.1 45.9 182.2 46.8 180.5 46.8 179.8 45.8 178.6 43.8 178.8 43.3 181.9 41.1 188.6 36.3 208.1 35.7 219.1 39.9 237.2 46.8 251.3 62.4 258.7 83.5 261.4 91.3 261.5 92.1 261.4 112 261.4 132.4 261.4 132.6 258.2 142 254.8 152.2 247.9 165 243.6 169L240.9 171.4 243.5 165.9Z" fill="#FFFFFF" transform="matrix(1.00002 0 0 1 549 128)"/><path d="M701 120.6C699.6 119.2 699.7 118 701.9 109.7 703 105.8 704.2 100.7 704.7 98.5 705.7 93.7 709.2 91.9 713.6 93.9 716 95 716.2 95.4 715.7 99.4 715.3 101.9 715.5 104.1 716.1 104.7 716.9 105.5 716.9 106.4 716.1 107.8 715.5 108.9 715 111.4 715 113.3 715 115.2 714.4 117.3 713.6 117.9 711.3 119.9 702.2 121.8 701 120.6Z" fill="#FFFFFF" transform="matrix(1.00002 0 0 1 549 128)"/></g></svg>